<?xml version="1.0" encoding="utf-8"?>
<!-- Generator: Adobe Illustrator 23.0.3, SVG Export Plug-In . SVG Version: 6.00 Build 0)  -->
<svg version="1.1" id="katman_1" xmlns="http://www.w3.org/2000/svg" xmlns:xlink="http://www.w3.org/1999/xlink" x="0px" y="0px"
	 viewBox="0 0 790.9 186.9" style="enable-background:new 0 0 790.9 186.9;" xml:space="preserve">
<style type="text/css">
	.st0{fill:#E4690D;}
	.st1{fill:#010202;}
</style>
<g>
	<g>
		<path class="st0" d="M0,84.9h25v11.4c4.3-4.7,9-8.2,14.2-10.5c5.2-2.3,10.9-3.5,17.1-3.5c6.2,0,11.8,1.5,16.8,4.6
			c5,3,9,7.5,12.1,13.3c4-5.9,8.8-10.3,14.6-13.3c5.8-3,12.1-4.6,18.9-4.6c7.1,0,13.3,1.6,18.7,4.9c5.4,3.3,9.2,7.6,11.6,12.9
			c2.3,5.3,3.5,13.9,3.5,25.9v58.3h-25.1v-50.5c0-11.3-1.4-18.9-4.2-22.9c-2.8-4-7-6-12.6-6c-4.3,0-8.1,1.2-11.5,3.7
			c-3.4,2.4-5.9,5.8-7.5,10.1c-1.6,4.3-2.5,11.2-2.5,20.7v44.9H63.8v-48.2c0-8.9-0.7-15.3-2-19.3c-1.3-4-3.3-7-5.9-8.9
			c-2.6-2-5.8-2.9-9.5-2.9c-4.2,0-7.9,1.2-11.3,3.7c-3.4,2.5-5.9,5.9-7.6,10.4c-1.7,4.4-2.5,11.5-2.5,21v44.2H0V84.9z"/>
		<path class="st0" d="M247.5,84.9h25v99.5h-25v-10.5c-4.9,4.6-9.8,8-14.7,10c-4.9,2-10.2,3.1-15.9,3.1c-12.8,0-24-5-33.3-14.9
			c-9.4-10-14.1-22.3-14.1-37.2c0-15.4,4.5-27.9,13.6-37.8c9.1-9.8,20.1-14.7,33-14.7c6,0,11.6,1.1,16.8,3.4
			c5.2,2.3,10.1,5.6,14.5,10.1V84.9z M221.2,105.4c-7.7,0-14.1,2.7-19.2,8.2c-5.1,5.5-7.7,12.4-7.7,21c0,8.6,2.6,15.7,7.8,21.2
			c5.2,5.5,11.6,8.3,19.2,8.3c7.8,0,14.3-2.7,19.5-8.2c5.2-5.5,7.7-12.6,7.7-21.4c0-8.7-2.6-15.7-7.7-21
			C235.7,108.1,229.1,105.4,221.2,105.4z"/>
		<path class="st0" d="M286.6,84.9h29l19.7,27.1l19.6-27.1h28.5l-33.8,46.8l38.2,52.6h-29l-23.7-32.6l-23.5,32.6h-28.5l37.7-52.3
			L286.6,84.9z"/>
		<path class="st0" d="M408.1,41.4c4.4,0,8.1,1.6,11.3,4.8c3.1,3.2,4.7,7,4.7,11.5c0,4.4-1.5,8.2-4.6,11.4
			c-3.1,3.1-6.8,4.7-11.1,4.7c-4.4,0-8.2-1.6-11.3-4.8s-4.7-7.1-4.7-11.7c0-4.4,1.5-8.1,4.6-11.2C400,42.9,403.7,41.4,408.1,41.4z
			 M395.6,84.9h25v99.5h-25V84.9z"/>
	</g>
	<path class="st1" d="M483.6,41.4c17,0,30.5,13.7,30.5,35.5c0,21.8-13.5,35.7-30.5,35.7c-10.2,0-17.5-4.8-21.3-10.7v82.5h-2.5
		c-10.3,0-18.7-8.4-18.7-18.7V41.4h21.2v10.8C466.1,46.1,473.4,41.4,483.6,41.4z M477.2,59.8c-7.9,0-15.1,6.1-15.1,17.1
		s7.2,17.1,15.1,17.1c8.1,0,15.3-6.2,15.3-17.3S485.3,59.8,477.2,59.8z"/>
	<path class="st1" d="M551.6,41.4c10.3,0,17.6,4.7,21.3,10.8V41.4h21.2v70.3h-21.2v-9.8c-3.8,6.1-11.2,10.8-21.5,10.8
		c-16.9,0-30.4-13.9-30.4-35.7C521,55,534.6,41.4,551.6,41.4z M557.8,59.8c-7.9,0-15.1,6-15.1,17s7.2,17.3,15.1,17.3
		c8.1,0,15.1-6.1,15.1-17.1S565.9,59.8,557.8,59.8z"/>
	<path class="st1" d="M657.3,74c0-9.4-5.2-14.6-13.3-14.6s-13.3,5.2-13.3,14.6v37.6h-21.2V41.3h21.2v10.2c4.2-5.8,11.7-9.9,21-9.9
		c16,0,26.7,10.9,26.7,29.5v40.5h-21.1V74z"/>
	<path class="st1" d="M724,112.6c-20.4,0-35-13.7-35-35.6c0-22,14.4-35.6,35-35.6c20.2,0,34.5,13.4,34.5,34.5c0,2-0.1,4.1-0.4,6.2
		h-48c0.7,9.1,6.3,13.3,13.2,13.3c6,0,9.3-3,11-6.7h22.6C753.5,102.2,741.2,112.6,724,112.6z M710.2,70.3h26.6c0-7.6-6-11.9-13-11.9
		C716.8,58.4,711.5,62.6,710.2,70.3z"/>
	<path class="st1" d="M769.3,0h21.6v112.1h-21.6V0z"/>
	<path class="st1" d="M769.3,124.1v28.5c0,7.4-6,13.5-13.5,13.5H475.2v18.4h295.8c11,0,20-8.9,20-20v-40.4H769.3z"/>
	<rect x="441" class="st1" width="21.2" height="28.4"/>
</g>
</svg>
