<svg width="470" height="119" viewBox="0 0 470 119" fill="none" xmlns="http://www.w3.org/2000/svg">
<path d="M218.338 82.5714C218.338 83.5692 217.637 84.4172 216.235 85.1157C214.933 85.7143 213.18 86.0136 210.977 86.0136C209.075 86.0136 206.07 85.8141 201.965 85.415C197.959 85.0159 193.703 84.3673 189.197 83.4694C184.69 82.5714 180.384 81.4739 176.279 80.1769C172.273 78.78 169.319 77.1338 167.416 75.2381C167.616 76.0363 167.967 77.1338 168.468 78.5306C168.968 79.8277 169.519 81.2744 170.12 82.8708C171.221 85.6644 172.223 88.5079 173.124 91.4014C174.125 94.195 174.626 96.4399 174.626 98.1361C174.626 101.329 174.376 103.723 173.875 105.32C173.475 107.016 172.523 107.864 171.021 107.864C169.819 107.864 168.968 107.365 168.468 106.367C167.967 105.37 167.716 104.172 167.716 102.776C167.716 102.676 167.716 102.426 167.716 102.027C167.716 101.628 167.767 100.481 167.867 98.585C167.867 97.7868 167.817 96.9887 167.716 96.1905C167.616 95.3923 167.466 94.6939 167.266 94.0952C165.664 90.2041 164.161 86.3129 162.76 82.4218C161.458 78.4308 160.206 74.0408 159.004 69.2517C158.704 68.254 158.353 67.0068 157.953 65.5102C157.652 63.9138 157.352 61.8685 157.051 59.3741C156.751 56.78 156.501 53.6372 156.3 49.9456C156.1 46.1542 156 41.5646 156 36.1769C156 31.9864 156.35 28.7937 157.051 26.5986C157.752 24.3039 158.604 23.1565 159.605 23.1565C160.506 23.1565 161.257 23.8549 161.858 25.2517C162.459 26.5488 162.76 27.7959 162.76 28.9932C162.76 32.2857 162.709 34.8299 162.609 36.6259C162.609 38.4218 162.609 39.7188 162.609 40.517C162.609 43.61 162.76 46.7029 163.06 49.7959C163.36 52.7891 163.711 55.5828 164.111 58.1769C164.512 61.1701 165.013 64.0136 165.614 66.7075C166.815 64.2132 168.117 61.5692 169.519 58.7755C171.021 55.8821 172.573 53.0386 174.176 50.2449C175.778 47.3515 177.38 44.5079 178.982 41.7143C180.585 38.9206 182.137 36.2766 183.639 33.7823C184.64 32.0862 185.742 30.6395 186.943 29.4422C188.245 28.2449 189.447 27.6463 190.549 27.6463C191.35 27.6463 192.251 27.9955 193.252 28.6939C194.254 29.2925 194.754 30.1406 194.754 31.2381C194.754 31.5374 194.704 31.8866 194.604 32.2857C194.504 32.585 194.404 32.8345 194.304 33.034C193.803 33.8322 193.202 34.6304 192.501 35.4286C191.9 36.2268 191.35 37.0249 190.849 37.8231C189.247 40.1179 187.444 42.712 185.441 45.6054C183.439 48.4989 181.536 51.3923 179.733 54.2857C178.031 57.0794 176.579 59.7234 175.377 62.2177C174.176 64.712 173.575 66.7075 173.575 68.2041C173.575 69.8005 174.526 71.1973 176.429 72.3946C178.331 73.5918 180.685 74.6395 183.489 75.5374C186.293 76.3356 189.347 77.034 192.652 77.6327C196.056 78.1315 199.211 78.5805 202.115 78.9796C205.019 79.2789 207.472 79.5284 209.475 79.7279C211.578 79.8277 212.73 79.8776 212.93 79.8776C215.233 79.8776 216.685 80.0771 217.286 80.4762C217.987 80.7755 218.338 81.4739 218.338 82.5714Z" fill="black"/>
<path d="M274.332 64.1633C274.533 65.4603 274.633 66.5079 274.633 67.3061C274.733 68.1043 274.783 68.9025 274.783 69.7007C274.783 72.195 274.432 75.1383 273.732 78.5306C273.131 81.9229 272.029 85.1655 270.427 88.2585C268.925 91.2517 266.872 93.8458 264.268 96.0408C261.765 98.1361 258.56 99.1837 254.655 99.1837C251.05 99.1837 247.645 98.1859 244.44 96.1905C241.236 94.0952 238.382 91.4513 235.878 88.2585C233.375 84.966 231.372 81.3243 229.87 77.3333C228.468 73.2426 227.767 69.2018 227.767 65.2109C227.767 59.424 228.117 54.4853 228.818 50.3946C229.62 46.2041 230.721 42.5624 232.123 39.4694C232.123 39.1701 231.923 38.8707 231.522 38.5714C231.222 38.2721 231.072 37.873 231.072 37.3742C231.072 36.8753 231.522 36.2268 232.423 35.4286C233.425 34.6304 234.576 33.8821 235.878 33.1837C237.28 32.3855 238.632 31.737 239.934 31.2381C241.336 30.6395 242.387 30.3401 243.088 30.3401C243.489 30.3401 244.14 30.5397 245.041 30.9388C246.043 31.3379 247.294 31.5374 248.796 31.5374C249.297 31.5374 249.798 31.4875 250.299 31.3878C250.799 31.288 251.35 31.2381 251.951 31.2381C254.054 31.2381 256.307 32.2358 258.71 34.2313C261.214 36.127 263.517 38.6213 265.62 41.7143C267.823 44.8073 269.676 48.3492 271.178 52.3401C272.78 56.2313 273.832 60.1723 274.332 64.1633ZM268.324 70C268.324 68.1043 267.923 65.4104 267.122 61.9184C266.321 58.3265 265.119 54.8345 263.517 51.4422C261.915 47.9501 259.962 44.907 257.659 42.3129C255.456 39.7188 252.952 38.4218 250.148 38.4218C249.948 38.4218 249.548 38.4218 248.947 38.4218C248.446 38.322 247.845 38.2721 247.144 38.2721C246.443 38.1723 245.792 38.1225 245.191 38.1225C244.591 38.0227 244.24 37.9728 244.14 37.9728C242.538 37.9728 241.136 38.7211 239.934 40.2177C238.832 41.7143 237.881 43.6599 237.08 46.0544C236.379 48.449 235.828 51.1928 235.428 54.2857C235.027 57.3787 234.827 60.4717 234.827 63.5646C234.827 64.6621 235.127 66.8073 235.728 70C236.329 73.093 237.38 76.3356 238.883 79.7279C240.485 83.0204 242.588 85.9637 245.191 88.5578C247.795 91.1519 251.1 92.449 255.105 92.449C257.809 92.449 260.012 91.6508 261.715 90.0544C263.417 88.3583 264.719 86.3129 265.62 83.9184C266.622 81.5238 267.323 79.0794 267.723 76.585C268.124 73.9909 268.324 71.7959 268.324 70Z" fill="black"/>
<path d="M352.49 68.5034C352.49 69.9002 352.09 71.3469 351.289 72.8435C350.588 74.3401 349.686 75.8367 348.585 77.3333C347.483 78.8299 346.282 80.2767 344.98 81.6735C343.678 82.9705 342.476 84.1179 341.375 85.1157C338.671 87.5102 335.867 89.805 332.963 92C330.159 94.0952 327.205 95.9909 324.1 97.6871C321.096 99.3832 317.942 100.73 314.637 101.728C311.332 102.726 307.878 103.224 304.272 103.224C293.357 103.224 287.899 97.6372 287.899 86.4626C287.899 85.3651 288.35 83.22 289.251 80.0272C290.153 76.8345 291.304 73.1927 292.706 69.102C294.108 65.0113 295.761 60.7211 297.663 56.2313C299.566 51.7415 301.519 47.6508 303.521 43.9592C305.524 40.1678 307.477 37.0748 309.38 34.6803C311.382 32.2857 313.235 31.0884 314.937 31.0884C316.039 31.0884 316.84 31.4376 317.341 32.1361C317.942 32.8345 318.242 33.5828 318.242 34.381C318.142 34.9796 317.441 36.2766 316.139 38.2721C314.837 40.1678 313.485 42.1134 312.083 44.1088C311.883 44.4082 311.533 44.907 311.032 45.6054C310.531 46.3039 310.031 47.0023 309.53 47.7007C308.929 48.4989 308.328 49.3469 307.727 50.2449C307.327 50.9433 306.426 52.7392 305.024 55.6327C303.722 58.4263 302.32 61.7188 300.818 65.5102C299.316 69.2018 297.964 73.093 296.762 77.1837C295.56 81.1746 294.959 84.6667 294.959 87.6599C294.959 89.356 295.31 90.7029 296.011 91.7007C296.812 92.6984 297.713 93.4467 298.715 93.9456C299.816 94.4444 300.918 94.7937 302.019 94.9932C303.221 95.093 304.273 95.1429 305.174 95.1429C308.879 95.1429 312.784 94.3447 316.89 92.7483C321.096 91.0522 325.102 88.8572 328.907 86.1633C332.712 83.4694 336.217 80.3764 339.422 76.8844C342.626 73.2925 345.13 69.6009 346.932 65.8095C347.333 65.1111 347.734 64.6621 348.134 64.4626C348.635 64.263 349.085 64.1633 349.486 64.1633C350.287 64.1633 350.988 64.712 351.589 65.8095C352.19 66.907 352.49 67.805 352.49 68.5034Z" fill="black"/>
<path d="M409.339 60.1225C409.339 60.6213 409.089 61.0204 408.588 61.3197C408.188 61.619 407.687 61.8685 407.086 62.068C406.585 62.2676 406.035 62.517 405.434 62.8163C404.833 63.0159 404.382 63.2653 404.082 63.5646L405.133 70.5986C405.734 74.4898 406.235 78.2812 406.636 81.9728C407.136 85.6644 407.387 89.1565 407.387 92.449C407.387 95.0431 407.086 97.3878 406.485 99.483C405.985 101.478 405.033 102.476 403.631 102.476C402.93 102.476 402.279 101.628 401.679 99.932C401.178 98.1361 400.727 96.1406 400.327 93.9456C400.026 91.6508 399.776 89.4059 399.576 87.2109C399.475 84.9161 399.425 83.2698 399.425 82.2721C399.425 81.5737 399.375 80.4762 399.275 78.9796C399.175 77.3832 399.025 75.737 398.825 74.0408C398.624 72.2449 398.424 70.5986 398.224 69.102C398.023 67.5057 397.873 66.3084 397.773 65.5102C396.071 65.61 393.767 65.8594 390.863 66.2585C387.959 66.5578 384.404 67.2562 380.198 68.3537V70.1497C380.198 72.3447 380.299 74.7891 380.499 77.483C380.699 80.0771 380.899 82.771 381.1 85.5646C381.4 88.2585 381.65 91.0023 381.851 93.7959C382.051 96.4898 382.151 99.0839 382.151 101.578C382.151 102.576 382.051 103.374 381.851 103.973C381.65 104.671 381.2 105.02 380.499 105.02C379.297 105.02 378.346 104.422 377.645 103.224C377.044 102.027 376.593 100.63 376.293 99.034C375.992 97.3379 375.742 95.5918 375.542 93.7959C375.442 92 375.342 90.5034 375.241 89.3061C374.841 86.712 374.49 83.7188 374.19 80.3265C373.99 76.8345 373.789 73.2925 373.589 69.7007C373.189 69.7007 372.688 69.6009 372.087 69.4014C371.486 69.102 370.885 68.8027 370.284 68.5034C369.684 68.1043 369.183 67.7052 368.782 67.3061C368.382 66.907 368.181 66.4581 368.181 65.9592C368.181 64.7619 368.732 63.8141 369.834 63.1156C370.935 62.3175 372.137 61.6689 373.439 61.1701C373.339 60.2721 373.289 59.3243 373.289 58.3265C373.289 57.229 373.289 55.3832 373.289 52.7891C373.289 51.6916 373.289 50.0952 373.289 48C373.289 45.805 373.289 43.3605 373.289 40.6667C373.289 37.873 373.289 34.8299 373.289 31.5374C373.389 28.2449 373.439 24.9025 373.439 21.5102C373.539 20.712 373.789 19.7642 374.19 18.6667C374.59 17.4694 375.241 16.8708 376.143 16.8708C376.844 16.8708 377.445 17.1701 377.945 17.7687C378.446 18.2676 378.846 18.9161 379.147 19.7143C379.447 20.5125 379.648 21.3605 379.748 22.2585C379.948 23.0567 380.048 23.7551 380.048 24.3537V60.1225C380.949 60.1225 382.151 60.0726 383.653 59.9728C385.155 59.873 386.708 59.7732 388.31 59.6735C389.912 59.4739 391.464 59.2744 392.966 59.0748C394.569 58.8753 395.87 58.6757 396.872 58.4762L393.417 27.0476C393.317 26.3492 393.217 25.6009 393.117 24.8027C393.117 24.0045 393.117 23.356 393.117 22.8571C393.117 20.8617 393.367 19.2653 393.868 18.068C394.468 16.771 395.32 16.1224 396.421 16.1224C397.823 16.1224 398.674 16.771 398.975 18.068C399.275 19.3651 399.475 21.2608 399.576 23.7551C399.676 25.3515 399.776 26.9478 399.876 28.5442C399.976 30.0408 400.126 31.5374 400.327 33.034L403.782 58.3265C404.983 58.3265 406.185 58.4263 407.387 58.6259C408.688 58.7256 409.339 59.2245 409.339 60.1225Z" fill="black"/>
<path d="M469.85 109.361C469.95 109.76 470 110.109 470 110.408C470 110.807 470 111.107 470 111.306C470 112.304 469.75 113.002 469.249 113.401C468.848 113.8 467.997 114 466.695 114C465.494 114 464.693 113.8 464.292 113.401C463.691 112.803 462.89 111.256 461.889 108.762C460.887 106.268 459.836 103.324 458.734 99.932C457.633 96.5397 456.531 92.898 455.43 89.0068C454.428 85.1156 453.527 81.424 452.726 77.932C451.624 78.4308 450.122 78.9796 448.219 79.5782C446.317 80.0771 444.364 80.576 442.361 81.0748C440.058 81.5737 437.655 82.1225 435.151 82.7211C434.25 87.0113 433.549 90.7029 433.048 93.7959C432.647 96.7891 432.247 99.2835 431.846 101.279C431.546 103.175 431.095 104.571 430.494 105.469C429.994 106.467 429.143 106.966 427.941 106.966C427.14 106.966 426.439 106.517 425.838 105.619C425.237 104.721 424.937 103.374 424.937 101.578C424.937 100.68 425.187 98.585 425.688 95.2925C426.188 92 426.739 88.3583 427.34 84.3674C427.941 80.2767 428.542 76.2358 429.143 72.2449C429.743 68.254 430.144 65.1111 430.344 62.8163C430.444 61.619 430.745 59.6735 431.246 56.9796C431.846 54.2857 432.447 51.542 433.048 48.7483C433.649 45.8549 434.25 43.2608 434.851 40.966C435.451 38.6712 435.852 37.3742 436.052 37.0748C437.655 33.3832 438.656 29.5918 439.056 25.7007C439.557 21.8095 439.908 18.2676 440.108 15.0748C440.408 11.7823 440.859 9.13832 441.46 7.14285C442.061 5.04762 443.312 4 445.215 4C445.716 4 446.217 4.39909 446.717 5.19728C447.318 5.99546 447.869 6.94331 448.37 8.04082C448.87 9.13832 449.271 10.2358 449.571 11.3333C449.872 12.3311 450.072 13.1293 450.172 13.7279C450.272 14.3265 450.372 15.5238 450.473 17.3197C450.673 19.1156 450.823 21.1111 450.923 23.3061C451.123 25.4014 451.274 27.4966 451.374 29.5918C451.574 31.5873 451.724 33.1338 451.824 34.2313C452.125 37.5238 452.576 41.2154 453.176 45.3061C453.877 49.3968 454.578 53.2381 455.279 56.8299C455.98 60.4218 456.631 63.4649 457.232 65.9592C457.833 68.3537 458.284 69.551 458.584 69.551C458.985 69.551 459.485 69.4513 460.086 69.2517C460.787 69.0522 461.438 68.9524 462.039 68.9524C462.84 68.9524 463.24 69.3515 463.24 70.1497C463.24 70.9478 463.04 71.5964 462.64 72.0952C462.239 72.5941 461.788 73.0431 461.288 73.4422C460.887 73.8413 460.487 74.1905 460.086 74.4898C459.786 74.7891 459.635 75.1383 459.635 75.5374C459.635 76.3356 460.086 78.381 460.987 81.6735L463.391 90.5034C463.591 91.3016 464.042 92.6485 464.743 94.5442C465.444 96.4399 466.145 98.4354 466.846 100.531C467.647 102.526 468.348 104.372 468.949 106.068C469.549 107.864 469.85 108.961 469.85 109.361ZM436.503 75.0884C437.104 75.0884 438.205 74.9388 439.808 74.6395C441.41 74.2404 443.062 73.7914 444.765 73.2925C446.467 72.7937 447.969 72.2948 449.271 71.7959C450.573 71.2971 451.224 70.898 451.224 70.5986C451.224 70.2993 451.023 69.551 450.623 68.3537C450.322 67.0567 449.922 65.4603 449.421 63.5646C449.02 61.5692 448.57 59.3243 448.069 56.8299C447.568 54.3356 447.118 51.6916 446.717 48.898C446.517 47.102 446.267 44.6576 445.966 41.5646C445.666 38.4717 445.365 35.4286 445.065 32.4354C444.765 29.3424 444.514 26.6984 444.314 24.5034C444.114 22.3084 444.013 21.2109 444.013 21.2109C444.013 21.2109 443.863 21.9592 443.563 23.4558C443.262 24.8526 442.912 26.449 442.511 28.2449C442.211 29.941 441.911 31.5873 441.61 33.1837C441.41 34.6803 441.31 35.5283 441.31 35.7279V39.9184C441.31 40.1179 441.159 41.0159 440.859 42.6122C440.659 44.1088 440.358 46.0544 439.958 48.449C439.557 50.7438 439.107 53.288 438.606 56.0816C438.205 58.7755 437.805 61.3696 437.404 63.864C437.004 66.3583 436.653 68.6032 436.353 70.5986C436.152 72.4943 436.052 73.7914 436.052 74.4898C436.052 74.8889 436.202 75.0884 436.503 75.0884Z" fill="black"/>
<g clip-path="url(#clip0)">
<path d="M98.9882 53.5542C98.203 50.4779 93.7577 48.0932 85.3874 46.2986C75.5465 44.4178 65.5422 43.5291 55.5243 43.6462C45.5054 43.5291 35.5011 44.4178 25.6602 46.2986C16.4003 48.2839 11.8979 50.9826 11.8979 54.5528C11.8398 66.5178 15.9165 78.1361 23.439 87.4414C7.88924 89.7507 0 93.3563 0 98.1783C0 110.05 23.8711 119 55.5243 119C87.1775 119 111.049 110.05 111.049 98.1783C111.049 95.1518 108.001 92.6519 101.795 90.5958C113.192 86.462 118.98 80.695 118.98 73.3913C119.232 67.8903 117.044 62.56 113 58.8219C109.033 55.5776 104.11 53.7267 98.9882 53.5542V53.5542ZM98.036 65.4249C100.898 65.5066 103.641 66.5932 105.784 68.4931C107.129 69.9927 107.42 72.1622 106.519 73.9632C105.42 76.2044 102.641 77.5497 99.7997 78.6717C97.2635 79.6566 94.6655 80.4744 92.0221 81.1199C94.8752 76.2543 96.9067 70.9513 98.035 65.4249H98.036ZM15.8638 54.5546C15.9128 54.0889 17.9117 51.9766 26.7986 50.113C36.2691 48.3401 45.8903 47.5023 55.5243 47.6121C65.1582 47.5023 74.7794 48.3401 84.25 50.1121C93.1259 51.9729 95.1312 54.0835 95.1847 54.5528C95.172 54.6009 95.152 54.6472 95.1248 54.6898L95.123 54.6944C94.877 55.1228 93.7251 56.1885 90.2929 57.3768C85.2549 51.8876 60.8627 51.5781 55.5243 51.5781C50.1858 51.5781 25.7955 51.8876 20.7575 57.3759C16.8632 56.0297 15.8956 54.8296 15.8638 54.5546V54.5546ZM85.2204 58.7729C84.2373 58.9935 83.217 59.205 82.1367 59.4011C81.9398 59.4374 81.7228 59.4673 81.5222 59.5027C80.5636 59.6698 79.5787 59.8304 78.5557 59.9784C78.1245 60.041 77.6706 60.0955 77.2285 60.1545C76.3989 60.2652 75.5601 60.3733 74.6959 60.4695C74.1839 60.5276 73.6593 60.5802 73.1355 60.6329C72.2976 60.7182 71.448 60.7972 70.5856 60.8716C70.0337 60.9179 69.4773 60.9624 68.9172 61.0032C68.0339 61.0686 67.138 61.1258 66.2339 61.1775C65.6774 61.2102 65.1237 61.2438 64.56 61.271C63.5642 61.3191 62.5548 61.3545 61.5408 61.3872C61.057 61.4026 60.5795 61.4235 60.093 61.4353C58.5834 61.4707 57.0602 61.4925 55.5243 61.4925C53.9884 61.4925 52.4652 61.4707 50.9556 61.4344C50.4699 61.4226 49.9943 61.4017 49.5132 61.3872C48.4947 61.3545 47.4807 61.3182 46.4822 61.2701C45.9248 61.2429 45.3765 61.2111 44.8264 61.1775C43.9151 61.1249 43.0119 61.0677 42.1223 61.0023C41.5676 60.9615 41.0175 60.9179 40.472 60.8716C39.5996 60.7981 38.7409 60.7182 37.8949 60.6311C37.3811 60.5793 36.8664 60.5276 36.3635 60.4704C35.4794 60.3714 34.6215 60.2616 33.7737 60.1481C33.3516 60.0919 32.9186 60.0401 32.5065 59.9802C31.4226 59.8241 30.3751 59.6561 29.3648 59.4764C29.2232 59.451 29.0679 59.4301 28.929 59.4038C27.8425 59.2068 26.8176 58.9944 25.83 58.7729C29.9956 57.2996 39.9727 55.544 55.5243 55.544C71.0758 55.544 81.0556 57.3005 85.2204 58.7729V58.7729ZM16.1543 59.7224C17.8 60.5494 19.5211 61.2147 21.294 61.7095C29.284 64.0569 42.0805 65.4585 55.5243 65.4585C58.8848 65.4585 62.2053 65.3713 65.4196 65.2034C73.632 64.9238 81.7909 63.7537 89.7509 61.7122C91.531 61.2147 93.2585 60.5457 94.9088 59.7142C92.6276 81.8923 75.8397 99.1704 55.5243 99.1704C45.402 99.0869 35.7526 94.8768 28.8056 87.514C21.6044 79.9225 17.151 70.1388 16.1552 59.7224H16.1543ZM70.562 100.16C77.3974 101.115 80.2985 102.479 81.121 103.144C79.6341 104.421 72.619 106.592 59.8706 107.039L59.729 107.042C58.577 107.076 57.3851 107.088 56.1933 107.093C55.9718 107.096 55.7521 107.105 55.5243 107.102C55.5088 107.102 55.4925 107.102 55.4771 107.102C54.0764 107.102 52.6694 107.082 51.2905 107.042H51.2751C38.445 106.597 31.4154 104.423 29.9276 103.145C30.7509 102.478 33.662 101.109 40.5301 100.154C50.1459 104.129 60.9444 104.131 70.562 100.161V100.16ZM3.96595 98.1783C3.96595 97.2796 7.88743 93.4743 26.7232 90.9907C29.1215 93.3536 31.7848 95.4314 34.6615 97.1825C25.8155 99.2204 25.7792 102.085 25.7792 103.136C25.7928 103.958 26.0996 104.748 26.6433 105.363C11.6845 103.381 3.96595 100.138 3.96595 98.1783ZM55.5243 115.034C35.4603 115.034 19.4186 111.16 10.8313 106.233C21.9249 109.549 39.1957 110.827 51.2025 111.008C52.6104 111.047 54.0583 111.067 55.5243 111.067C56.0281 111.067 56.5291 111.067 56.9522 111.047C57.4541 111.047 57.9371 111.047 58.3601 111.027L58.9528 111.018C59.2351 111.012 59.5392 111.015 59.817 111.007C71.8429 110.825 89.1228 109.547 100.218 106.231C91.6318 111.159 75.5891 115.034 55.5243 115.034V115.034ZM107.083 98.1783C107.083 100.138 99.3685 103.38 84.4061 105.362C84.9498 104.746 85.2558 103.957 85.2694 103.136C85.2694 102.085 85.2331 99.2276 76.4179 97.1897C77.1686 96.7313 77.9021 96.2429 78.6256 95.7382C84.0285 95.0828 89.386 94.0934 94.6664 92.7753C104.774 95.0329 107.083 97.4884 107.083 98.1783V98.1783ZM94.3178 88.784C94.2543 88.794 94.1907 88.8076 94.129 88.8239C91.1461 89.6019 87.8991 90.2736 84.4715 90.8582C86.0237 89.3195 87.4661 87.6756 88.7887 85.9364C93.0388 85.0994 97.2099 83.9039 101.257 82.3617C104.839 80.9483 108.386 79.1627 110.08 75.7115C111.727 72.3973 111.14 68.4086 108.609 65.709C105.893 63.2018 102.389 61.7176 98.6968 61.5107C98.8665 60.2017 98.9882 58.8773 99.0608 57.5365C103.185 57.7008 107.146 59.1886 110.358 61.7803C113.541 64.7777 115.245 69.0241 115.014 73.3913C115.014 81.5438 103.798 86.2568 94.3178 88.784V88.784Z" fill="black"/>
<path d="M25.7792 69.4253C25.7792 68.3297 24.8914 67.4419 23.7957 67.4419C22.701 67.4419 21.8132 68.3297 21.8132 69.4253C21.8132 70.5201 22.701 71.4078 23.7957 71.4078C23.9918 71.406 24.1861 71.3724 24.3712 71.3089C25.2064 71.0629 25.7792 70.2959 25.7792 69.4253Z" fill="black"/>
<path d="M36.5768 88.9219C37.1669 89.3222 37.9257 89.3758 38.5657 89.0626C39.2057 88.7486 39.6278 88.1149 39.6713 87.4033C39.7149 86.6925 39.3736 86.0117 38.7772 85.6223C34.6633 82.9535 31.1703 79.4323 28.5333 75.2985C28.1674 74.6776 27.4948 74.3036 26.774 74.3208C26.0542 74.339 25.4006 74.7456 25.0666 75.3847C24.7325 76.0228 24.7706 76.7917 25.1673 77.3935C28.1012 82.0094 31.9918 85.9409 36.5768 88.9219Z" fill="black"/>
<path d="M47.0114 12.4986C46.6392 12.1264 46.1354 11.9176 45.6089 11.9176C45.0833 11.9176 44.5786 12.1264 44.2074 12.4986C42.4445 14.531 41.5268 17.1617 41.643 19.8495C41.5268 22.5265 42.4363 25.1472 44.1847 27.1778C45.1923 28.4804 45.6979 30.1026 45.6089 31.7474C45.6961 33.3904 45.1914 35.0108 44.1874 36.3143C43.4367 37.0968 43.4539 38.3377 44.2255 39.0993C44.998 39.8609 46.2389 39.8609 47.0114 39.0983C48.7733 37.0659 49.6911 34.4362 49.5749 31.7474C49.6911 29.0704 48.7824 26.4498 47.0332 24.4201C46.0265 23.1165 45.5209 21.4944 45.6089 19.8495C45.5227 18.2156 46.0192 16.6043 47.0114 15.3026C47.3836 14.9314 47.5924 14.4266 47.5924 13.9011C47.5924 13.3746 47.3836 12.8708 47.0114 12.4986Z" fill="black"/>
<path d="M58.9093 0.600719C58.5371 0.228542 58.0333 0.0197601 57.5068 0.0197601C56.9812 0.0197601 56.4765 0.228542 56.1052 0.600719C54.3424 2.63317 53.4256 5.26382 53.5408 7.95167C53.4256 10.6286 54.3342 13.2493 56.0825 15.279C57.0901 16.5825 57.5958 18.2047 57.5068 19.8495C57.5939 21.4926 57.0901 23.1129 56.0862 24.4164C55.3345 25.1989 55.3518 26.4398 56.1243 27.2014C56.8959 27.963 58.1368 27.963 58.9093 27.2005C60.6721 25.168 61.5889 22.5374 61.4737 19.8495C61.5889 17.1726 60.6803 14.5519 58.932 12.5222C57.9244 11.2187 57.4187 9.59651 57.5068 7.95167C57.4206 6.31772 57.9171 4.70556 58.9093 3.40476C59.2814 3.03258 59.4902 2.52878 59.4902 2.00228C59.4902 1.4767 59.2814 0.971989 58.9093 0.600719V0.600719Z" fill="black"/>
<path d="M70.8071 12.4986C70.4359 12.1264 69.9312 11.9176 69.4056 11.9176C68.8791 11.9176 68.3753 12.1264 68.0031 12.4986C66.2402 14.531 65.3234 17.1617 65.4396 19.8495C65.3234 22.5265 66.2321 25.1472 67.9813 27.1778C68.988 28.4804 69.4936 30.1026 69.4056 31.7474C69.4918 33.3904 68.988 35.0108 67.984 36.3143C67.2324 37.0968 67.2497 38.3377 68.0222 39.0993C68.7937 39.8609 70.0355 39.8609 70.8071 39.0983C72.57 37.0659 73.4877 34.4362 73.3715 31.7474C73.4877 29.0704 72.5781 26.4498 70.8298 24.4201C69.8222 23.1165 69.3166 21.4944 69.4056 19.8495C69.3184 18.2156 69.815 16.6043 70.8071 15.3026C71.1793 14.9314 71.3881 14.4266 71.3881 13.9011C71.3881 13.3746 71.1793 12.8708 70.8071 12.4986Z" fill="black"/>
</g>
<defs>
<clipPath id="clip0">
<rect width="119" height="119" fill="white"/>
</clipPath>
</defs>
</svg>
