<svg width="400" height="400" viewBox="0 0 400 400" fill="none" xmlns="http://www.w3.org/2000/svg">
<rect width="400" height="400" fill="none"/>
<path d="M90.6422 75.9753C83.9479 82.6696 76.4996 89.1505 70.5 96.5C66.7264 99.0158 63.6055 104.659 60.5642 107.99C58.3352 110.432 56.6281 114.595 55.2373 117.568C53.5152 121.249 52.3113 124.647 51.0135 128.464C49.6147 132.578 46.8425 135.995 45.283 140.005C43.6139 144.297 42.6042 149.616 41.947 154.157C40.6328 163.236 40.653 174.296 33.9836 181.329C32.0983 183.317 30.5745 184.63 30.54 187.571C30.508 190.287 31.437 192.924 31.5085 195.642C31.6143 199.664 32.2188 203.798 31.8851 207.802C31.66 210.503 30.8546 213.374 31.0242 216.088C31.1705 218.43 32.2078 223.709 34.4948 224.966C35.6181 225.584 41.3992 228.101 42.3775 226.285C43.7807 223.679 42.5703 218.712 43.0231 215.712C43.1521 214.857 43.3312 213.668 42.9155 212.86C42.4464 211.948 41.1196 211.454 40.8171 210.546C39.9567 207.965 42.1622 205.962 42.1622 203.578C42.1622 200.499 41.7086 199.051 40.1714 196.745C39.1488 195.211 36.8327 190.439 39.0683 188.701C39.7102 188.201 42.4883 189.836 42.8886 190.557C43.7142 192.043 43.7876 194.05 44.5835 195.642C45.4625 197.4 48.165 199.122 50.1794 197.955C51.3862 197.257 51.9318 192.766 51.6053 191.525C51.2729 190.262 50.1922 188.456 50.4216 187.194C50.7361 185.464 53.9756 183.604 54.8606 181.867C55.8972 179.832 56.0459 177.182 55.6139 174.926C55.152 172.514 53.827 168.489 56.0982 166.425C57.0988 165.515 62.6486 167.07 64.0347 167.07C66.4053 167.07 69.6343 166.467 71.7022 167.797C74.1077 169.343 73.6835 172.714 74.0159 175.249C74.6698 180.235 70.3919 183.393 67.1824 186.602C63.3082 190.476 60.5875 194.077 57.7124 198.709C55.7264 201.908 55.6046 203.126 56.4479 206.968C57.2631 210.682 61.931 215.488 59.8378 219.209C58.6455 221.329 57.2078 223.459 55.6139 225.343C53.2367 228.152 52.1515 232.856 49.0495 234.759C46.6901 236.207 42.335 237.945 45.5521 241.162C46.5287 242.139 45.3628 247.579 44.5 246.5C42.8826 244.478 43.7147 239.692 42.9155 237.181C42.2815 235.188 43.4878 232.385 40.7094 231.988C39.499 231.815 38.466 232.206 37.5617 232.93C35.1443 234.864 33.8924 236.143 34.3064 239.387C34.7881 243.16 30.8528 246.937 29.679 250.256C28.3764 253.939 26.0456 257.275 28.1994 260.721C30.7709 264.836 32.0361 269.045 35.6785 272.37C37.3815 273.925 39.3662 275.421 41.1937 276.89C43.0721 278.4 43.9172 277.717 46.0363 277.482C47.2822 277.343 45.0872 275.921 45.0678 275.437C44.988 273.442 45.3041 268.281 47.5698 268.281C50.4262 268.281 54.5694 269.087 57.1205 267.528C58.6812 266.574 58.7366 264.842 60.6718 265.967C63.9714 267.886 66.4715 274.576 70.7606 274.576C75.2277 274.576 77.7429 275.737 81.791 277.616C85.59 279.38 84.1505 275.218 83.3514 273.419C82.2703 270.987 80.4151 269.053 78.3742 267.42C75.7375 265.311 72.311 266.562 69.7651 264.38C67.3371 262.299 70.9747 262.397 72.4286 262.228C74.8022 261.952 77.111 262.414 78.4818 260.156C79.4555 258.552 78.545 256.174 81.2798 256.174C82.2285 256.174 84.2178 256.478 85.1539 256.766C87.7853 257.576 90.4431 257.148 88.9473 254.157C87.9764 252.215 90.3627 249.395 92.2564 249.395C92.8841 249.395 95.7583 249.149 96.1305 248.83C96.6722 248.365 97.5704 245.539 97.8792 244.767C98.4046 243.454 99.6573 242.955 100.166 241.646C101.06 239.347 97.1907 236.804 101.35 236.804C103.016 236.804 106.658 237.771 106.569 235.459C106.525 234.317 104.861 233.059 104.148 232.257C102.649 230.571 95.4241 230.024 93.3863 230.024C92.6251 230.024 85.0611 231.056 85.8534 228.679C86.0702 228.028 90.1399 227.177 90.6422 227.146C95.8202 226.822 100.854 228.205 105.762 229.728C107.465 230.257 112.984 226.466 112.273 229.755L112.254 229.839C111.897 231.488 110.611 237.427 112.273 238.149C112.837 238.394 109.155 239.08 108.291 238.956C103.735 238.305 101.39 238.907 100.005 243.96C98.8078 248.325 100.624 252.084 101.619 256.174C102.01 257.781 101.758 259.528 102.103 261.178C102.651 263.796 105.453 265.227 107.242 267.016C109.636 269.411 112.445 270.312 115.07 272.263C116.484 273.313 119.024 274.638 119.805 276.298C119.91 276.519 116.618 276.514 116.069 276.513L116.012 276.513C112.503 276.513 114.63 283.015 115.017 285.391C115.62 289.096 113.665 292.158 112.138 295.373C111.004 297.759 109.118 302.36 111.196 304.627C111.889 305.383 115.528 307.907 116.631 306.914C117.269 306.34 117.491 304.339 118.084 303.524C118.718 302.652 119.049 302.631 120.128 301.937C121.734 300.905 123.583 300.49 124.971 299.301C125.859 298.539 126.115 297.645 126.908 296.852C127.971 295.789 127.815 295.661 127.877 294.054C127.938 292.458 129.78 290.343 130.674 289.104C134.21 284.208 130.8 277.24 136.163 273.07C137.821 271.78 138.983 270.914 139.499 273.366C139.682 274.234 140.802 277.734 140.36 278.343C139.455 279.586 138.185 278.958 137.293 279.903C136.372 280.878 136.923 284.985 136.593 286.387C136.036 288.755 134.365 290.909 133.741 293.247C133.143 295.493 134.524 299.272 131.562 298.816C126.676 298.064 125.758 300.244 124.002 304.439C122.688 307.578 120.487 309.268 117.008 309.9C114.943 310.276 114.043 315.183 111.681 316.411C109.774 317.403 108.99 317.837 108.99 319.989C108.99 323.745 113.943 327.695 116.523 329.943C119.212 332.286 120.085 331.084 123.088 330.751C123.162 330.742 123.034 329.996 123.034 329.782C123.034 329.065 123.094 328.297 123.518 327.684C124.627 326.081 129.18 326.851 130.97 326.15C132.419 325.583 133.887 323.257 135.49 324.294C138.552 326.275 141.553 326.991 145.202 326.877C148.111 326.786 149.191 322.932 151.982 322.518C152.916 322.38 151.246 316.791 151.094 315.496C150.762 312.67 148.605 307.413 145.471 306.995C143.16 306.687 140.115 305.347 138.315 303.874C137.144 302.916 136.662 301.473 137.32 300.027C138.441 297.559 139.074 297.396 137.077 295.4C135.433 293.755 136.267 293.462 138.046 293.462C141.437 293.462 144.691 290.206 146.655 287.759C147.995 286.09 148.754 284.855 149.668 283.078C150.402 281.651 151.525 279.23 153.031 278.477C155.054 277.466 156.448 276.809 156.448 279.446C156.448 283.205 154.476 285.056 151.874 287.409C150.107 289.008 148.932 291.903 148.727 294.27C148.689 294.708 145.5 297 148.431 297.767C151.5 298 149.989 296.492 150 296C150.08 292.576 155.866 289.857 158.385 288.997C159.908 288.477 160.104 287.397 160.591 286.145C161.212 284.548 161.566 279.707 163.793 279.93C165.779 280.129 167.566 280.382 169.308 281.356C172.47 283.123 172.911 291.774 177.54 288.997C179.177 288.015 179.561 285.579 181.737 284.853C183.575 284.241 184.21 285.568 185.719 286.172C189.003 287.485 190.104 290.415 192.283 292.978C192.831 293.622 192.234 293.942 191.799 294.431C191.109 295.207 192.373 296.861 192.552 297.713C193.03 299.981 191.799 301.91 191.799 304.116C191.799 307.115 192.268 309.374 194.489 311.595C198.008 315.114 204.152 311.977 208.425 311.407C211.665 310.975 214.107 309.178 215.151 306.161C215.98 303.768 216.145 301.551 216.738 299.058C217.413 296.227 217.184 295.533 215.743 292.924C214.963 291.513 212.025 288.843 213.214 286.898C213.701 286.101 216.548 286.978 217.465 286.199C218.54 285.284 221.185 284.565 221.716 283.185C222.597 280.894 223.76 277.869 223.76 275.303C223.76 271.573 230.928 268.67 229.814 273.796C228.984 277.611 230.097 280.403 225.966 282.54C221.857 284.665 224.483 288.293 221.985 291.149C219.934 293.493 218.537 292.699 221.231 294.431C222.008 294.93 225.476 299.12 224.245 299.274C223.514 299.365 223.282 305.281 222.899 306.215C221.875 308.714 219.201 308.472 216.981 309.443C216.066 309.843 207.993 313.449 208 313.5C208.45 316.878 213.387 320.506 216.227 321.657C219.612 323.029 223.416 324.077 227.043 323.11C227.69 322.937 228.337 323.121 228.98 323.002C229.986 322.816 230.94 320.522 231.616 319.828C232.774 318.638 234.48 316.396 236.055 315.765C236.459 315.604 235.677 316.102 235.5 316.5C234.449 318.864 237.607 319.817 238.961 320.769C241.091 322.269 241.85 321.054 243.857 320.608C244.792 320.4 246.097 320.591 246.413 321.657C246.956 323.491 243.239 330.266 247.758 330.266H252.816C255.13 330.266 254.754 331.441 254.054 333.387C253.898 333.82 252.805 335.136 253.3 335.109C254.605 335.037 255.843 334.644 257.174 334.625C261.488 334.563 262.278 333.607 264.967 330.354L265.084 330.213C266.296 328.747 265.49 325.766 265.407 323.863C265.305 321.515 262.288 319.35 260.591 317.971C259.149 316.8 257.302 316.661 255.722 315.739C254.214 314.859 252.613 314.377 250.879 314.286C249.561 314.216 247.26 313.357 245.929 312.941C243.591 312.21 241.255 311.724 239.31 310.196C237.931 309.113 238.682 304.397 239.364 303.336C240.518 301.542 246.194 301.695 248.215 301.695C250.261 301.695 252.335 301.796 254.376 301.668L254.474 301.662C255.6 301.593 258.24 301.431 258.546 300.054C258.631 299.672 257.287 299.632 257.067 299.543C253.974 298.291 252.854 291.07 252.655 288.351C252.506 286.321 253.225 282.909 255.829 282.809C258.849 282.693 259.889 277.403 261.909 275.383C264.227 273.066 267.094 271.382 269.442 269.034C270.189 268.287 269.74 266.311 269.792 265.375C269.901 263.41 270.547 261.492 271.702 259.887C272.526 258.743 274.535 258.031 275.845 258.865C278.214 260.372 280.582 263.718 281.576 266.317C282.397 268.464 281.861 270.069 283.916 271.294C290.65 275.306 297.929 274.598 305.089 271.913C308.625 270.587 310.379 266.914 313.779 265.214C315.976 264.115 319.611 264.878 322.065 264.514C322.642 264.429 324.967 264.756 325.348 264.299C325.853 263.692 324.999 260.057 325.079 259.188C325.305 256.702 325.922 253.228 327.823 251.439C329.536 249.827 331.59 248.78 333.311 247.081C335.038 245.376 336.846 243.632 339.015 242.507C340.735 241.615 342.387 241.105 343.642 239.494C345.217 237.473 347.773 231.788 346.225 229.244C345.008 227.246 343.444 222.906 340.925 222.276C337.766 221.486 334.649 216.692 333.096 214.044C329.567 208.028 333.331 199.493 334.172 192.978C334.542 190.112 335.159 187.599 333.607 184.961C332.216 182.596 329.818 180.835 327.769 179.069C327.199 178.578 326.21 178.199 325.939 177.455C324.454 173.371 325.364 168.301 324.487 164.003C323.732 160.304 322.725 157.704 320.128 154.964C317.642 152.339 316.521 148.306 314.801 145.171C312.938 141.773 310.846 138.148 309.555 134.49C308.774 132.276 306.832 130.395 306.165 127.953C305.294 124.756 304.639 120.898 305.6 117.676C306.475 114.744 307.881 111.716 310.443 109.927C313.361 107.89 314.829 106.707 316.147 103.363C317.093 100.961 318.015 102.122 320.128 102.179C322.101 102.232 324.444 102.365 326.397 102.69C328.37 103.019 327.368 110.844 327.15 112.241C326.774 114.648 326.953 115.07 329.329 116.223C333.205 118.103 331.983 116.697 332.719 113.425C333.482 110.036 334.861 104.019 337.373 101.507C337.959 100.921 340.398 100.228 340.118 99.2198C339.426 96.7296 337.114 93.896 335.625 91.8483C332.646 87.7526 328.586 84.5705 324.218 82.0554C316.006 77.3274 309.453 71.0041 302.049 65.2139C299.521 63.2368 296.825 62.4109 294.57 60.156C289.271 54.8568 283.353 51.1023 277.19 46.8658C274.22 44.8235 271.292 43.3655 268.043 41.8886C265.651 40.8011 262.459 40.7647 259.918 40.1668C256.867 39.4487 254.027 38.1296 250.987 37.3957C241.852 35.191 232.624 32.1555 223.868 28.679C221.331 27.6716 218.512 27.3092 215.797 27.1186C211.789 26.8374 207.933 24.9283 203.852 24.7242C195.572 24.3103 187.963 26.505 180.177 29.0557C176.241 30.3451 171.865 32.2717 167.694 32.4455C164.333 32.5855 160.599 32.8184 157.416 33.9252C152.436 35.6576 148.393 39.3891 143.373 41.1353C139.751 42.395 135.921 43.2105 132.235 44.3368C128.813 45.3823 125.081 45.779 121.796 46.9734C117.895 48.3919 114.757 52.8289 111.896 55.6901C104.97 62.6163 97.587 69.0304 90.6422 75.9753Z" stroke="black" stroke-width="9" stroke-linecap="round" stroke-linejoin="round"/>
<path d="M85.7189 157.681C85.1883 159.715 83.9685 160.957 82.3559 162.228C84.6109 163.731 79.0705 173.017 78.5087 175.545C78.1182 177.302 79.6174 178.723 80.661 179.876C82.4119 181.811 84.0218 183.459 86.3376 184.88C87.5028 185.595 89.8952 185.949 89.5122 187.624C88.8104 190.695 90.0503 192.63 90.0503 195.588C90.0503 198.076 87.8291 199.672 89.4046 201.964C90.8806 204.111 93.8314 203.514 96.0767 202.906C98.3239 202.296 100.463 202.421 102.803 202.421C108.174 202.421 108.478 207.592 112.138 210.439C114.056 211.93 115.769 213.996 118.299 213.183C120.912 212.343 122.104 211.423 124.21 209.799L124.218 209.793C125.842 208.54 129.845 208.635 130.782 206.995C131.338 206.022 132.243 205.388 133.203 204.843C134.969 203.84 135.997 202.184 137.347 200.726C143.285 194.313 152.466 194.134 159.73 190.207C160.165 189.972 163.394 189.017 163.604 188.754C164.004 188.255 161.627 186.293 161.317 185.983C160.106 184.772 159.004 182.632 160.107 180.899C163.533 175.514 156.64 169.723 158.869 164.272C159.272 163.288 161.54 162.03 161.56 161.313C161.607 159.576 160.731 157.211 159.838 155.744C157.984 152.699 157.847 150.973 157.847 147.511C157.847 145.076 150.152 141.557 148.431 140.92C144.665 139.525 141.86 136.913 138.53 134.84C136.127 133.344 135.678 137.848 134.172 138.875C133.415 139.392 131.817 138.595 131.024 138.526C128.613 138.316 126.145 139.467 123.706 139.467C119.708 139.467 118.525 143.274 114.425 143.341C112.292 143.376 110.155 143.341 108.022 143.341C104.969 143.341 100.869 144.677 98.1482 145.978C95.3209 147.33 95.8361 149.258 96.6147 151.816C98.0475 156.524 89.6856 155.003 87.4138 155.556C86.4073 155.8 85.9511 156.791 85.7189 157.681Z" fill="black"/>
<path d="M65.891 151.09C66.924 153.917 68.6009 156.332 70.2494 158.838C71.6732 158.363 72.4131 162.145 73.6392 160.775C75.1164 159.124 75.5705 156.916 76.9214 155.179C78.1474 153.603 78.9661 154.547 78.9661 152.166C78.9661 149.618 79.8465 147.281 79.9346 144.902C79.9769 143.76 79.7869 141.789 78.9661 140.92C77.7118 139.592 74.8348 138.145 74.2311 136.454C72.7829 132.399 73.0397 128.82 73.155 124.67C73.2547 121.081 67.3224 112.298 65.5144 119.128C65.1894 120.356 64.9919 122.237 64.9225 123.487C64.7555 126.493 62.7462 129.339 61.4251 131.934C60.4254 133.898 58.9321 136.303 59.9723 138.499C60.7595 140.161 62.1723 141.231 62.9855 142.857C63.6563 144.199 64.3603 145.696 64.4383 147.215C64.4762 147.955 64.2879 148.675 64.8149 149.26C65.3227 149.824 65.6254 150.363 65.891 151.09Z" fill="black"/>
<path d="M201.861 158.73C206.348 159.392 210.51 159.686 214.559 157.385C215.505 157.385 216.239 159.764 216.873 160.398C217.728 161.253 216.981 166.384 216.981 167.554C216.981 169.659 216.96 171.671 216.496 173.742C216.393 174.205 215.137 176.633 215.635 177.132C217.048 178.544 219.351 178.467 219.994 180.845C220.977 184.483 220.751 187.804 220.855 191.552C220.891 192.874 222.319 193.521 223.276 194.189C225.844 195.981 227.858 198.462 229.84 200.861C232.049 203.535 235.271 205.206 237.427 207.748C239.401 210.074 241.988 212.054 245.175 212.107C249.679 212.18 253.2 212.305 257.067 209.685C260.467 207.382 263.45 204.297 266.375 201.453C268.697 199.196 270.714 196.315 273.155 194.296C274.599 193.102 276.295 191.487 277.89 190.53C279.032 189.845 281.465 189.826 282.84 189.454C286.038 188.59 290.954 190.217 292.256 186.656C293.689 182.737 294.515 177.773 297.368 174.603C299.243 172.52 298.833 169.748 299.413 167.285C299.895 165.234 304.925 163.281 304.524 162.12C302.793 157.099 297.529 154.38 293.602 151.466C289.692 148.566 286.016 144.824 282.195 141.727C279.57 139.6 274.779 134.328 271.218 134.14C266.442 133.889 261.66 132.082 257.282 130.266C255.475 129.517 253.214 129.746 251.632 128.706C250.087 127.689 248.398 127.107 246.574 127.576C242.66 128.583 238.445 129.308 234.791 130.858C228.924 133.347 223.986 137.852 218.918 141.512C217.029 142.876 214.955 143.324 212.838 142.265C211.067 141.38 211.503 141.197 209.232 141.781C206.128 142.579 210.962 141.677 210.578 143.341C209.742 146.961 208.48 150.269 204.497 150.121C201.873 150.024 199.79 148.184 197.126 148.184C196.063 148.184 195.301 148.671 194.328 149.045C193.228 149.468 194.327 150.01 194.597 150.713C195.851 153.975 198.116 158.178 201.861 158.73Z" fill="black"/>
<path d="M197.368 246.005C199.935 246.795 197.893 248.021 196.642 249.879C196.642 252.131 195.034 252.015 195.431 254.237C195.777 256.174 196.188 256.174 197.987 256.174C200.312 256.174 202.783 256.42 205.062 255.905C208.218 255.193 208.648 252.501 209.959 249.879C211.14 247.516 213.607 246.521 214.102 243.799C214.692 240.552 215.767 237.517 216.738 234.409C217.666 231.441 219.777 233.458 220.613 235.593C220.81 236.098 222.971 238.996 223.653 237.557C224.273 236.248 224.107 233.873 224.271 232.392C224.46 230.693 226.019 227.475 225.67 225.908C225.216 223.862 226.042 220.281 223.949 219.37C222.662 218.811 220.985 218.428 219.617 218.025C218.044 217.563 218.911 216.114 219.16 214.77C219.78 211.422 218.49 208.342 216.066 205.919C214.378 204.231 212.907 207.223 211.977 208.394C210.593 210.136 210.396 209.787 210.658 211.622C210.974 213.831 214.093 216.366 215.528 218.16C216.663 219.578 216.591 223.245 214.317 223.245C209.322 223.245 205.854 212.455 205.385 208.232C204.918 204.029 204.301 198.816 201.484 195.373C199.178 192.554 198.906 187.955 194.812 186.548C187.705 184.105 179.522 184.943 173.774 190.691C168.064 196.401 161.579 204.57 160.806 213.075C160.113 220.697 156.71 229.101 159.246 236.427C160.599 240.335 157.835 254.237 164.68 254.237C166.673 254.237 167.504 253.335 169.146 252.3C170.521 251.434 171.925 251.151 173.397 250.578C175.145 249.899 175.643 248.639 176.679 247.189C178.221 245.03 177.979 242.946 180.661 241.754C182.451 240.958 186.746 241.487 188.517 242.131C191.071 243.06 192.297 243.267 194.328 244.929C194.791 245.308 196.714 245.804 197.368 246.005Z" fill="black"/>
<path d="M235.867 239.709C237.302 241.145 238.064 241.833 240.192 242.603C241.365 239.415 243.676 236.719 246.897 235.728C248.427 235.257 250.489 235.082 252.116 235.378C253.286 235.591 254.318 235.749 255.506 235.862C257.209 236.024 257.964 237.101 259.354 237.719C260.382 238.176 260.913 237.675 261.909 238.633C263.036 239.717 263.978 241.018 264.707 242.4C265.196 243.326 267.79 245.206 267.102 246.032C266.491 246.765 266.341 248.06 265.891 248.91C265.243 250.135 264.282 249.767 263.577 250.471C262.426 251.622 264.843 254.179 265.891 254.237C269.52 254.439 269.995 253.404 270.222 249.529C270.322 247.831 270.781 246.286 270.734 244.552C270.707 243.563 270.128 242.917 270.357 241.916C270.917 239.465 270.199 236.651 271.46 234.409C271.865 233.689 272.81 233.091 272.644 232.176C272.535 231.576 271.799 230.528 272.429 230.024C274.691 228.214 279.203 226.282 282.248 228.087C284.377 229.348 288.263 228.563 290.561 227.845C292.006 227.394 292.45 226.238 293.736 225.666C295.617 224.83 296.633 222.619 298.713 221.899C300.831 221.166 300.523 224.211 300.731 225.666C301.23 229.16 303.789 224.906 304.901 223.729C304.996 223.629 299.276 219.46 298.337 219.37C294.352 218.991 290.333 218.402 286.311 218.402C282.733 218.402 281.239 221.749 278.105 222.868C275.376 223.843 272.253 225.517 269.281 224.455C267.879 223.955 267.445 226.839 266.617 227.764C265.486 229.029 263.825 229.075 262.313 229.54C260.337 230.148 257.4 229.545 255.453 228.571C253.532 227.611 252.136 225.666 249.91 225.666C248.499 225.666 245.732 224.289 245.552 222.76C245.424 221.674 242.776 219.953 242.27 221.415C241.191 224.532 240.83 227.823 238.315 230.024C236.968 231.203 236.209 233.216 235.114 234.625C234.784 235.049 231.774 238.555 233.446 238.741C234.236 238.829 235.29 239.132 235.867 239.709Z" fill="black"/>
<path d="M130.944 122.841C133.616 126.85 136.651 120.466 137.562 118.644C138.617 119.172 138.783 122.252 140.467 122.518C141.472 122.677 141.872 123.914 142.889 123.971C143.69 124.015 144.508 123.971 145.31 123.971C146.742 123.971 148.951 121.55 146.763 121.55C143.83 121.55 144.643 119.4 145.202 117.783C145.699 116.347 145.158 111.726 143.857 111.003C142.17 110.066 143.489 113.853 140.952 112.725C138.73 111.738 138.389 112.51 137.454 114.286C136.122 116.817 133.803 114.465 132.719 113.317C130.999 111.496 134.254 112.175 134.172 110.035C134.127 108.869 132.608 108.98 134.064 107.99C135.076 107.303 135.076 107.5 134.764 106.322C133.522 101.632 126.613 104.384 123.895 106.914C122.018 108.662 122.355 110.564 123.895 112.618C125.069 114.183 127.78 113.601 127.877 116.115C127.972 118.589 129.583 120.801 130.944 122.841Z" fill="black"/>
<path d="M194.113 132.311C192.995 135.789 193.688 135.898 196.578 137.446C197.583 137.183 198.525 136.902 198.525 136.777C198.525 136.209 197.411 134.54 197.126 133.898C196.396 132.257 202.83 131.611 204.282 131.127C205.162 130.834 206.689 130.298 207.295 129.54C207.819 128.885 210.186 129.298 210.927 129.298C213.589 129.298 216.203 128.814 218.918 128.814C221.826 128.814 224.729 128.948 224.729 125.182C224.729 120.816 228.991 125.812 229.679 126.877C230.347 127.909 234.031 126.471 234.871 126.177C236.575 125.581 238.421 126.131 240.171 125.881C241.239 125.729 241.291 123.928 241.947 123.271C242.999 122.219 245.245 122.098 245.041 120.366C244.152 112.813 233.898 114.286 228.441 114.286C225.617 114.286 222.801 115.254 219.886 115.254C217.87 115.254 212.852 114.363 211.439 116.034C209.93 117.817 209.008 120.291 208.372 122.518C208.141 123.326 207.961 125.14 207.295 125.531C205.779 126.423 203.793 128.811 202.184 129.271C200.191 129.84 197.604 129.785 195.673 130.643C194.162 131.315 194.649 130.642 194.113 132.311Z" fill="black"/>
<path d="M191.799 169.68C187.845 172.222 191.628 173.734 194.705 175.303H195.915C198.236 175.303 197.61 174.958 197.61 172.881C197.61 169.134 198.579 165.835 198.579 162.228C198.579 160.88 195.794 158.081 195.135 159.564C194.856 160.192 193.777 160.531 193.736 161.259C193.686 162.157 193.983 163.322 193.628 164.165C192.964 165.742 193.4 168.651 191.799 169.68Z" fill="black"/>
<path d="M168.07 159.322C170.394 159.193 171.675 157.008 174.289 156.903C176.799 155.336 182.875 150.562 180.661 149.26C179.265 148.439 176.614 149.637 175.092 149.637C173.085 149.637 173.148 151.61 171.675 152.031C170.022 152.504 167.911 153.417 166.133 153.511C165.056 153.568 161.839 158.475 163.012 158.811C164.678 159.287 166.313 159.42 168.07 159.322Z" fill="black"/>
<path d="M186.23 253.538C184.323 255.021 183.171 255.542 181.701 257.53C182.292 258.795 183.066 260.283 183.836 259.941C185.541 259.183 188.415 259.16 189.136 257.143C189.611 255.811 188.176 252.024 186.23 253.538Z" fill="black"/>
</svg>
